<?xml version="1.0" encoding="UTF-8" standalone="no"?><svg xmlns="http://www.w3.org/2000/svg" xmlns:xlink="http://www.w3.org/1999/xlink" fill="#000000" height="105.9" preserveAspectRatio="xMidYMid meet" version="1" viewBox="-0.2 -0.1 453.3 105.9" width="453.3" zoomAndPan="magnify"><g id="change1_1"><path d="M449.72,8.44c-82.5-3.03-293.78-4.83-376.32-6.79C50.29,1.1,27.17,0.56,4.05,0 C2.01-0.05-0.17,1.79,0.01,3.82C2.84,35.41,5.64,67,8.24,98.61c0.21,2.59,2.53,3.9,5.02,4c74.51,3.19,278.06,1.7,352.49-2.64 c21.27-1.24,42.53-2.67,63.76-4.44c3.4-0.28,5.56-2.27,5.91-5.51c2.38-21.6,5.01-43.2,6.79-64.85c0.57-6.87-10.28-7.18-11.17-0.5 c-2.69,20.03-4.69,40.14-6.82,60.23c-70.87,6.34-270.67,9.42-341.86,9.65c-21.76,0.07-43.52-0.25-65.28-0.62 c-2.99-28.72-5.83-57.46-8.63-86.2c80.66,1.61,290.07,3.31,370.73,4.78c23.57,0.43,47.15,0.49,70.72,0.66 C453.15,13.2,452.91,8.56,449.72,8.44z" fill="#004aad"/></g></svg>